<?xml version="1.0" standalone="no"?>
<!DOCTYPE svg PUBLIC "-//W3C//DTD SVG 20010904//EN"
 "http://www.w3.org/TR/2001/REC-SVG-20010904/DTD/svg10.dtd">
<svg version="1.0" xmlns="http://www.w3.org/2000/svg"
 width="50.000000pt" height="50.000000pt" viewBox="0 0 50.000000 50.000000"
 preserveAspectRatio="xMidYMid meet">
<metadata>
Created by potrace 1.10, written by Peter Selinger 2001-2011
</metadata>
<g transform="translate(0.000000,50.000000) scale(0.100000,-0.100000)"
fill="#000000" stroke="none">
<path d="M231 417 c-50 -100 -52 -137 -12 -178 73 -73 182 0 147 99 -21 58
-75 162 -85 162 -5 0 -27 -37 -50 -83z m34 -132 c28 -29 30 -35 13 -35 -16 0
-48 31 -48 47 0 18 6 17 35 -12z"/>
<path d="M0 156 l0 -116 39 0 c45 0 48 7 75 132 16 80 13 84 -62 94 l-52 7 0
-117z"/>
<path d="M127 143 c-19 -80 -22 -76 82 -118 67 -26 74 -27 125 -16 69 15 161
70 161 95 0 37 -29 42 -90 17 -42 -17 -68 -22 -102 -18 -67 7 -71 23 -4 19 42
-3 61 0 70 12 10 12 8 17 -11 29 -21 14 -164 47 -200 47 -9 0 -20 -23 -31 -67z"/>
</g>
</svg>
