<?xml version="1.0" standalone="no"?>
<!DOCTYPE svg PUBLIC "-//W3C//DTD SVG 20010904//EN"
 "http://www.w3.org/TR/2001/REC-SVG-20010904/DTD/svg10.dtd">
<svg version="1.0" xmlns="http://www.w3.org/2000/svg"
 width="300.000000pt" height="300.000000pt" viewBox="0 0 300.000000 300.000000"
 preserveAspectRatio="xMidYMid meet">
<metadata>
Created by potrace 1.10, written by Peter Selinger 2001-2011
</metadata>
<g transform="translate(0.000000,300.000000) scale(0.100000,-0.100000)"
fill="#000000" stroke="none">
<path d="M695 2776 c-204 -41 -375 -149 -491 -312 -123 -173 -167 -409 -115
-627 56 -237 195 -399 538 -627 281 -188 341 -235 508 -404 149 -150 238 -263
319 -403 22 -40 43 -72 46 -72 3 0 24 32 46 72 81 140 170 253 319 403 167
169 227 216 508 404 340 226 476 384 538 623 26 101 26 277 -1 383 -90 359
-452 611 -812 565 -218 -28 -389 -128 -524 -308 -34 -44 -64 -87 -68 -94 -5
-12 -7 -12 -12 0 -20 44 -139 184 -199 234 -163 137 -403 202 -600 163z m315
-39 c87 -28 136 -51 203 -94 92 -58 126 -91 208 -200 39 -51 73 -93 77 -93 10
1 42 26 42 34 0 10 79 115 120 160 60 65 196 149 295 182 82 26 102 29 225 29
97 0 149 -5 185 -17 248 -80 399 -215 494 -438 13 -30 28 -58 33 -61 17 -11
-170 -109 -368 -194 -118 -51 -388 -145 -416 -145 -12 0 -18 8 -19 25 -1 14
-2 28 -3 33 -1 4 -6 29 -10 56 -5 31 -16 56 -29 67 -53 44 -81 13 -118 -128
-29 -113 -35 -121 -92 -122 -24 -1 -27 2 -22 18 3 11 1 22 -5 26 -5 3 -10 14
-10 24 0 9 -11 27 -25 39 l-24 21 -29 -24 c-16 -14 -32 -38 -35 -55 -8 -39
-27 -39 -27 -1 0 17 -4 33 -10 36 -5 3 -10 18 -11 33 -1 39 -40 106 -64 110
-30 4 -60 -34 -80 -103 -10 -33 -22 -65 -27 -71 -4 -6 -5 -14 -2 -17 3 -3 0
-12 -6 -19 -10 -10 -122 -12 -584 -10 -405 2 -577 -1 -592 -9 -13 -7 -21 -21
-22 -38 -1 -54 1 -54 513 -54 357 0 451 -3 390 -10 -120 -15 -746 -12 -899 4
l-130 14 -13 55 c-7 30 -16 64 -19 75 -3 11 -6 76 -6 145 -1 100 3 141 21 204
26 93 60 176 72 176 5 0 9 6 9 13 0 40 182 215 265 256 154 76 225 92 375 87
69 -3 145 -11 170 -19z m1885 -547 c11 -18 13 -240 3 -300 -17 -102 -86 -270
-111 -270 -6 0 -7 -3 -4 -6 4 -4 -3 -21 -16 -38 -22 -32 -161 -172 -213 -215
-38 -32 -131 -91 -142 -91 -5 0 -19 -11 -32 -25 -13 -14 -28 -25 -32 -25 -5 0
-25 -12 -44 -26 -19 -15 -34 -23 -34 -18 0 4 -6 1 -12 -8 -7 -9 -41 -34 -76
-55 -34 -22 -59 -43 -55 -46 3 -4 -1 -7 -10 -7 -9 0 -21 -8 -26 -17 -6 -10
-11 -14 -11 -9 0 5 -9 -1 -20 -14 -11 -13 -20 -19 -20 -15 0 5 -18 -10 -40
-33 -22 -22 -49 -44 -60 -47 -11 -4 -19 -9 -17 -13 1 -4 -32 -41 -75 -83 -43
-42 -78 -74 -78 -70 0 3 -11 -12 -25 -34 -13 -22 -25 -35 -25 -30 0 6 -8 -2
-16 -17 -8 -16 -20 -28 -26 -28 -6 0 -9 -3 -5 -6 6 -7 -5 -23 -42 -60 -13 -13
-21 -24 -17 -24 4 0 -3 -10 -14 -22 -11 -13 -23 -33 -26 -45 -4 -13 -10 -23
-15 -23 -5 0 -9 -7 -9 -15 0 -8 -4 -15 -9 -15 -5 0 -11 -8 -13 -18 -9 -32 -46
-24 -64 14 -9 19 -21 34 -26 34 -5 0 -6 5 -3 10 3 6 1 10 -4 10 -6 0 -11 7
-11 15 0 8 -4 15 -10 15 -5 0 -10 5 -10 11 0 6 -6 16 -12 23 -7 8 -20 23 -28
36 -8 12 -25 33 -37 46 -13 14 -23 28 -23 33 0 4 -40 50 -90 101 -49 52 -90
98 -90 101 0 3 -11 12 -25 19 -13 7 -22 17 -20 21 3 4 -3 10 -14 14 -10 3 -39
25 -64 48 -59 55 -74 67 -84 67 -5 0 -15 10 -23 21 -8 12 -30 28 -47 35 -18 8
-33 19 -33 24 0 6 -5 10 -10 10 -12 0 -136 81 -161 105 -9 8 -19 15 -22 15
-12 0 -122 73 -140 93 -9 11 -17 16 -17 12 0 -5 -8 0 -18 11 -10 10 -35 32
-55 48 -20 16 -34 33 -31 38 3 4 -1 8 -9 8 -20 0 -122 124 -163 199 -39 69
-33 79 32 62 22 -5 131 -15 244 -22 231 -13 528 -7 775 16 88 8 185 15 215 15
31 0 64 6 75 13 42 27 57 16 83 -61 27 -83 49 -103 88 -77 13 8 30 30 37 48
l14 32 16 -50 c8 -27 23 -76 31 -107 17 -61 41 -84 77 -73 27 9 42 44 85 200
43 158 49 169 62 134 22 -58 28 -59 228 -59 109 0 193 4 205 10 22 12 27 71 6
88 -8 7 -78 12 -174 13 -147 2 -162 4 -166 20 -4 16 10 23 87 48 50 16 127 43
171 59 75 27 97 36 200 80 22 9 99 46 170 83 148 75 142 72 150 59z m-860
-120 c4 -6 15 -48 26 -93 11 -45 24 -99 30 -119 l10 -38 174 0 175 0 0 -32 0
-33 -197 2 c-145 2 -199 6 -204 15 -5 7 -13 43 -20 81 -12 68 -29 99 -29 55
-1 -13 -27 -113 -58 -222 -58 -198 -76 -236 -103 -209 -10 10 -47 135 -84 278
-7 28 -9 24 -31 -50 -47 -157 -68 -135 -144 155 l-12 45 -20 -65 c-11 -36 -23
-69 -28 -73 -4 -5 -45 -10 -91 -12 -45 -2 -105 -6 -133 -10 -37 -4 -47 -3 -36
4 11 8 -129 10 -478 9 l-492 -3 0 33 0 32 593 0 593 0 34 105 c52 160 71 154
126 -41 l38 -135 22 82 c41 150 64 138 120 -67 l42 -149 12 45 c21 79 110 395
115 408 5 15 41 16 50 2z m-145 -254 c0 -3 -17 -57 -27 -86 -3 -10 -10 -3 -18
20 -18 48 -18 58 3 63 23 6 42 8 42 3z m-307 -20 c4 -9 -3 -16 -16 -20 -26 -6
-29 -4 -21 18 8 20 30 21 37 2z"/>
</g>
</svg>
