<?xml version="1.0" standalone="no"?>
<!DOCTYPE svg PUBLIC "-//W3C//DTD SVG 20010904//EN"
 "http://www.w3.org/TR/2001/REC-SVG-20010904/DTD/svg10.dtd">
<svg version="1.0" xmlns="http://www.w3.org/2000/svg"
 width="50.000000pt" height="50.000000pt" viewBox="0 0 50.000000 50.000000"
 preserveAspectRatio="xMidYMid meet">
<metadata>
Created by potrace 1.10, written by Peter Selinger 2001-2011
</metadata>
<g transform="translate(0.000000,50.000000) scale(0.100000,-0.100000)"
fill="#000000" stroke="none">
<path d="M194 476 c-40 -18 -72 -59 -80 -103 -14 -72 40 -204 129 -316 l42
-52 7 66 c4 49 16 86 47 145 22 44 43 97 46 119 15 101 -97 184 -191 141z m96
-16 c11 -7 3 -10 -30 -10 -27 0 -59 -8 -80 -20 l-35 -21 33 31 c33 31 81 40
112 20z m28 -46 c12 -8 22 -22 22 -29 0 -12 -7 -10 -32 5 -36 22 -88 26 -120
9 -11 -6 -22 -8 -25 -5 -10 10 60 35 97 36 20 0 46 -7 58 -16z m-21 -44 c51
-31 53 -73 9 -165 -20 -41 -36 -86 -36 -99 0 -46 -17 -35 -57 37 -72 130 -79
173 -34 218 35 34 72 37 118 9z"/>
</g>
</svg>
